<?xml version="1.0" encoding="UTF-8" standalone="no"?>
<!-- Created with Inkscape (http://www.inkscape.org/) -->

<svg
   width="45.312988mm"
   height="43.038715mm"
   viewBox="0 0 45.312989 43.038715"
   version="1.1"
   id="svg5"
   xml:space="preserve"
   xmlns="http://www.w3.org/2000/svg"
   xmlns:svg="http://www.w3.org/2000/svg"><defs
     id="defs2" /><g
     id="layer1"
     transform="translate(-18.20025,-106.93857)"><rect
       style="color:#000000;overflow:visible;fill:#1488ca;stroke:none;stroke-width:2;stroke-linecap:butt;stroke-dasharray:none;stop-color:#000000"
       id="rect1372"
       width="50"
       height="22.6745"
       x="91.832344"
       y="221.9754" /><path
       id="path1911"
       style="fill:none;fill-opacity:1;fill-rule:evenodd;stroke:none;stroke-width:0.5;stroke-linecap:butt;stroke-linejoin:miter;stroke-dasharray:none;stroke-opacity:1"
       d="m 110.95206,158.97754 v 1.54306 a 7.6774192,7.6774192 0 0 0 -3.97289,3.97289 h -1.54305 v 6.12365 h 1.54305 a 7.6774192,7.6774192 0 0 0 3.13986,3.54862 c 0.0389,1.01288 0.003,2.71094 -0.59686,3.48351 -1.33067,1.71272 -5.5325,-0.50018 -6.05234,2.38797 -0.92464,5.13712 2.63722,10.54458 10.54406,10.54458 7.90682,0 11.46921,-5.40746 10.54457,-10.54458 -0.51984,-2.88815 -4.72167,-0.67525 -6.05234,-2.38797 -0.60025,-0.77257 -0.63613,-2.47063 -0.59738,-3.48351 a 7.6774192,7.6774192 0 0 0 3.13986,-3.54862 h 1.54306 v -6.12365 h -1.53789 a 7.6774192,7.6774192 0 0 0 -3.97805,-3.97806 v -1.53789 z" /><path
       style="color:#000000;overflow:visible;fill:#1488ca;stroke:none;stroke-width:2;stroke-linecap:butt;stroke-dasharray:none;stop-color:#000000"
       id="path1962"
       d="m 212.77785,250.42134 a 25,25 0 0 1 -12.5,21.65064 25,25 0 0 1 -25,0 25,25 0 0 1 -12.5,-21.65064 h 25 z" /><g
       id="g2618"
       transform="translate(-207.42698,77.766034)"><g
         id="g2924"><path
           id="path1317"
           style="fill:#1488ca;fill-opacity:1;fill-rule:evenodd;stroke:none;stroke-width:0.264583px;stroke-linecap:butt;stroke-linejoin:miter;stroke-opacity:1"
           d="m 230.89099,29.172538 c -3.98419,0 -5.2123,3.894847 -5.26376,7.279142 v 25.759668 c 0,5.539979 4.45993,9.999907 9.9999,9.999907 h 12.65659 12.6566 c 5.53997,0 9.9999,-4.459928 9.9999,-9.999907 V 36.45168 c -0.0515,-3.384295 -1.27957,-7.279142 -5.26376,-7.279142 -3.98416,0 -4.50177,7.279142 -12.45609,7.279142 -2.09672,0 -3.67368,-0.508221 -4.93665,-1.253153 -1.26296,0.744932 -2.83992,1.253153 -4.93665,1.253153 -7.95431,0 -8.47192,-7.279142 -12.45608,-7.279142 z" /><g
           id="g2485"
           transform="matrix(1.2625909,0,0,1.2605877,104.33049,-169.68489)"
           style="stroke-width:0.792651"><path
             id="path2481"
             style="fill:#ffcd1c;fill-rule:evenodd;stroke:#000000;stroke-width:0.396326;stroke-linecap:butt;stroke-linejoin:miter;stroke-dasharray:none;stroke-opacity:1"
             d="m 110.95206,158.97754 v 1.54306 c -1.77871,0.77474 -3.19815,2.19418 -3.97289,3.97289 h -1.54305 v 6.12365 h 1.54305 c 0.64629,1.48434 1.74527,2.72638 3.13986,3.54862 0.0389,1.01288 0.003,2.71094 -0.59686,3.48351 -1.33067,1.71272 -8.12734,0.31287 -6.05234,2.38797 l 10.54406,10.54458 10.54457,-10.54458 c 2.07505,-2.07505 -4.72167,-0.67525 -6.05234,-2.38797 -0.60025,-0.77257 -0.63613,-2.47063 -0.59738,-3.48351 1.39459,-0.82224 2.49357,-2.06428 3.13986,-3.54862 h 1.54306 v -6.12365 h -1.53789 c -0.77491,-1.78159 -2.19646,-3.20314 -3.97805,-3.97806 v -1.53789 z" /><circle
             style="color:#000000;overflow:visible;fill:#ffffff;stroke:#000000;stroke-width:0.396326;stroke-linecap:butt;stroke-dasharray:none;stroke-opacity:1;stop-color:#000000"
             id="circle2483"
             cx="114.01395"
             cy="167.55557"
             r="4.1131458" /></g></g></g></g></svg>
